<?xml version="1.0"?>
<svg xmlns="http://www.w3.org/2000/svg" id="Layer_1" enable-background="new 0 0 512 512" height="512px" viewBox="0 0 512 512" width="512px"><g><path d="m504.5 497h-64.674c-2.803-10.478-11.326-18.902-22.297-21.229l-18.803-3.987-8.013-15.732-26.776-56.979c-4.126-8.776-17.699-2.397-13.576 6.38l21.9 46.602-16.202.295-94.038-126.174c-2.955-3.964-9.082-3.963-12.036 0l-94.038 126.174-16.201-.295 76.089-161.917h39.95.437 39.95l37.831 80.504c4.024 8.562 17.69 2.377 13.576-6.38l-39.154-83.319v-36.364-39.179h143.391c21.181 0 38.413-17.224 38.413-38.395 0-4.142-3.358-7.5-7.5-7.5h-186.788c-2.982-3.526-6.429-6.669-10.27-9.322 9.092-8.528 14.788-20.635 14.788-34.053 0-12.245 0-24.49 0-36.735 0-13.145-5.238-25.083-13.725-33.863 1.136-3.479 1.739-7.139 1.739-10.811 0-19.145-15.582-34.72-34.735-34.72s-34.735 15.575-34.735 34.72c0 2.585.3 5.141.862 7.639-9.141 7.839-15.369 19.037-16.736 31.873-.653 6.134.746 12.12 3.889 17.194v24.704c0 14.396 6.55 27.288 16.827 35.863-2.867 2.239-5.482 4.759-7.809 7.513h-96.856c-9.697 0-9.697 15 0 15h87.951c-1.962 5.05-3.154 10.426-3.466 15.953l-143.481-.06c-10.286 0-19.044-6.662-22.179-15.895h40.692c9.697 0 9.697-15 0-15h-49.426c-4.142 0-7.5 3.358-7.5 7.5 0 21.171 17.232 38.395 38.41 38.395l143.394.058v39.12 36.384l-82.279 175.089-8.013 15.732-18.803 3.987c-10.97 2.327-19.493 10.751-22.296 21.229h-64.684c-4.142 0-7.5 3.358-7.5 7.5s3.358 7.5 7.5 7.5h497c4.142 0 7.5-3.358 7.5-7.5s-3.358-7.499-7.5-7.499zm-248.496-153.798 90.278 121.13 11.672 16.438c-.328 5-.288 11.612 1.424 16.23h-206.748c1.713-4.618 1.752-11.229 1.424-16.23l11.672-16.438zm.219-68.065h-.437-37.212v-23.059h74.852v23.059zm217.772-100.632c-3.135 9.233-11.893 15.895-22.179 15.895h-143.485c-.317-5.516-1.509-10.871-3.464-15.895zm-220.257-159.505c10.882 0 19.735 8.847 19.735 19.72 0 .35-.012.698-.03 1.044-6.563-3.288-13.96-5.15-21.787-5.15-6.197 0-12.138 1.154-17.611 3.263.447-10.481 9.095-18.877 19.693-18.877zm-35.694 60.819c1.833-17.219 16.284-30.205 33.613-30.205 18.639 0 33.802 15.153 33.802 33.78v.513l-53.045 9.323c-7.944 1.398-15.225-5.385-14.37-13.411zm3.973 27.338c4.296 1.335 8.628 1.618 12.994.848l50.448-8.867v20.992c0 17.484-14.224 31.708-31.734 31.708-17.484 0-31.708-14.224-31.708-31.708zm31.734 59.681c6.286 0 12.283-1.256 17.762-3.518 13.201 6.027 21.913 19.403 21.913 34.042v.01 43.705h-74.852v-43.705-.01c0-13.834 7.8-26.634 19.979-33.072 4.768 1.644 9.877 2.548 15.198 2.548zm-165.419 334.162c2.017-3.272 5.315-5.719 9.259-6.555l22.305-4.73c2.215-.47 4.1-1.915 5.127-3.933l7.316-14.364h12.798c-2.263 2.478-6.084 7.402-6.084 10.96v10.665c0 4.388-3.573 7.958-7.966 7.958h-42.755zm292.589 0c-4.393 0-7.966-3.57-7.966-7.958.968-8.194-.426-15.428-6.084-21.625h12.798l7.316 14.364c1.028 2.018 2.912 3.463 5.127 3.933l22.305 4.73c3.945.836 7.243 3.283 9.259 6.555h-42.755z" data-original="#000000" class="active-path" data-old_color="#000000" fill="#FA2742"/></g> </svg>
